<?xml version="1.0" encoding="UTF-8"?>
<!DOCTYPE svg PUBLIC "-//W3C//DTD SVG 1.1//EN" "http://www.w3.org/Graphics/SVG/1.1/DTD/svg11.dtd">
<svg xmlns="http://www.w3.org/2000/svg" version="1.1" width="80px" height="80px" style="shape-rendering:geometricPrecision; text-rendering:geometricPrecision; image-rendering:optimizeQuality; fill-rule:evenodd; clip-rule:evenodd" xmlns:xlink="http://www.w3.org/1999/xlink">
<g><path style="opacity:1" fill="#221a1b" d="M 32.5,-0.5 C 35.5,-0.5 38.5,-0.5 41.5,-0.5C 41.2786,0.734849 40.6119,1.73485 39.5,2.5C 40.4415,2.48945 41.1081,2.98945 41.5,4C 40.9444,5.01106 40.2778,5.84439 39.5,6.5C 38.8333,7.16667 38.1667,7.83333 37.5,8.5C 36.1667,8.83333 34.8333,9.16667 33.5,9.5C 33.3893,8.88258 33.056,8.38258 32.5,8C 37.4914,7.68826 39.3247,5.18826 38,0.5C 36.9887,1.33663 35.8221,1.66997 34.5,1.5C 34.5,2.83333 34.5,4.16667 34.5,5.5C 32.602,6.09647 30.9354,6.09647 29.5,5.5C 29.9752,3.21632 30.9752,1.21632 32.5,-0.5 Z"/></g>
<g><path style="opacity:1" fill="#755c51" d="M 65.5,-0.5 C 70.1667,-0.5 74.8333,-0.5 79.5,-0.5C 79.5,1.5 79.5,3.5 79.5,5.5C 77.327,6.38502 75.4937,5.71836 74,3.5C 73.3333,4.16667 72.6667,4.83333 72,5.5C 70.2196,4.36061 68.3863,3.36061 66.5,2.5C 65.8902,1.60895 65.5569,0.608953 65.5,-0.5 Z"/></g>
<g><path style="opacity:1" fill="#413130" d="M 53.5,-0.5 C 57.5,-0.5 61.5,-0.5 65.5,-0.5C 65.5569,0.608953 65.8902,1.60895 66.5,2.5C 64.8615,3.91362 63.5282,3.58028 62.5,1.5C 61.3777,2.63023 60.0443,3.29689 58.5,3.5C 56.5056,4.34965 54.5056,4.84965 52.5,5C 52.2047,3.28633 52.5381,1.453 53.5,-0.5 Z"/></g>
<g><path style="opacity:1" fill="#563c35" d="M 14.5,-0.5 C 17.8333,-0.5 21.1667,-0.5 24.5,-0.5C 24.7373,0.791047 24.404,1.79105 23.5,2.5C 22.7195,4.62805 21.7195,4.79472 20.5,3C 21.4506,2.28248 21.6172,1.44915 21,0.5C 19.0589,2.87011 16.5589,4.20344 13.5,4.5C 11.5759,4.28927 11.2426,3.6226 12.5,2.5C 13.4013,1.70951 14.0679,0.709515 14.5,-0.5 Z"/></g>
<g><path style="opacity:1" fill="#281e1e" d="M 24.5,-0.5 C 27.1667,-0.5 29.8333,-0.5 32.5,-0.5C 30.9752,1.21632 29.9752,3.21632 29.5,5.5C 29.296,10.0369 26.9627,12.7036 22.5,13.5C 20.1582,13.2252 20.1582,12.3919 22.5,11C 21.944,10.6174 21.6107,10.1174 21.5,9.5C 22.9331,7.44183 23.5997,5.1085 23.5,2.5C 24.404,1.79105 24.7373,0.791047 24.5,-0.5 Z"/></g>
<g><path style="opacity:1" fill="#3f2f2e" d="M 66.5,2.5 C 68.3863,3.36061 70.2196,4.36061 72,5.5C 72.6667,4.83333 73.3333,4.16667 74,3.5C 75.4937,5.71836 77.327,6.38502 79.5,5.5C 79.5,8.16667 79.5,10.8333 79.5,13.5C 78.8333,13.1667 78.1667,12.8333 77.5,12.5C 77.5,11.5 77.5,10.5 77.5,9.5C 74.6195,8.35779 71.6195,7.35779 68.5,6.5C 66.463,6.49827 64.463,6.8316 62.5,7.5C 60.7659,6.43795 59.0992,6.43795 57.5,7.5C 56.9569,7.44001 56.6236,7.10667 56.5,6.5C 57.6119,5.73485 58.2786,4.73485 58.5,3.5C 60.0443,3.29689 61.3777,2.63023 62.5,1.5C 63.5282,3.58028 64.8615,3.91362 66.5,2.5 Z"/></g>
<g><path style="opacity:1" fill="#2c2324" d="M 41.5,-0.5 C 45.5,-0.5 49.5,-0.5 53.5,-0.5C 52.5381,1.453 52.2047,3.28633 52.5,5C 54.5056,4.84965 56.5056,4.34965 58.5,3.5C 58.2786,4.73485 57.6119,5.73485 56.5,6.5C 56.6236,7.10667 56.9569,7.44001 57.5,7.5C 59.9817,9.08516 60.6484,11.0852 59.5,13.5C 58.5806,10.9108 56.914,8.91083 54.5,7.5C 53.7025,7.95689 53.3691,8.62356 53.5,9.5C 51.1125,7.84286 49.6125,5.50953 49,2.5C 47.1079,3.61744 46.2746,5.28411 46.5,7.5C 44.283,6.63137 41.9496,6.29803 39.5,6.5C 40.2778,5.84439 40.9444,5.01106 41.5,4C 41.1081,2.98945 40.4415,2.48945 39.5,2.5C 40.6119,1.73485 41.2786,0.734849 41.5,-0.5 Z"/></g>
<g><path style="opacity:1" fill="#5f423a" d="M 12.5,2.5 C 11.2426,3.6226 11.5759,4.28927 13.5,4.5C 13.5,5.16667 13.5,5.83333 13.5,6.5C 12.0689,6.88066 11.2355,7.88066 11,9.5C 10.2303,8.40191 9.39695,8.40191 8.5,9.5C 8.63088,8.62356 8.29755,7.95689 7.5,7.5C 6.60433,8.50633 5.93767,8.50633 5.5,7.5C 6.05216,5.9974 6.05216,4.33073 5.5,2.5C 8.00482,1.58294 10.3382,1.58294 12.5,2.5 Z"/></g>
<g><path style="opacity:1" fill="#5b3730" d="M 39.5,6.5 C 41.9496,6.29803 44.283,6.63137 46.5,7.5C 46.5,7.83333 46.5,8.16667 46.5,8.5C 43.5,8.5 40.5,8.5 37.5,8.5C 38.1667,7.83333 38.8333,7.16667 39.5,6.5 Z"/></g>
<g><path style="opacity:1" fill="#755141" d="M -0.5,-0.5 C 4.5,-0.5 9.5,-0.5 14.5,-0.5C 14.0679,0.709515 13.4013,1.70951 12.5,2.5C 10.3382,1.58294 8.00482,1.58294 5.5,2.5C 6.05216,4.33073 6.05216,5.9974 5.5,7.5C 5.93767,8.50633 6.60433,8.50633 7.5,7.5C 8.29755,7.95689 8.63088,8.62356 8.5,9.5C 7.59603,10.209 7.26269,11.209 7.5,12.5C 5.5,11.5 3.5,10.5 1.5,9.5C 2.11312,6.99076 2.77979,4.49076 3.5,2C 1.92289,0.0700251 0.58956,0.236692 -0.5,2.5C -0.5,1.5 -0.5,0.5 -0.5,-0.5 Z"/></g>
<g><path style="opacity:1" fill="#3d2d2c" d="M 23.5,2.5 C 23.5997,5.1085 22.9331,7.44183 21.5,9.5C 20.5526,11.4554 19.2193,11.7887 17.5,10.5C 17.9421,13.0312 17.2754,15.3645 15.5,17.5C 14.5557,19.6879 12.889,21.0212 10.5,21.5C 10.4894,19.9826 9.82277,18.8159 8.5,18C 9.05596,17.6174 9.38929,17.1174 9.5,16.5C 10.675,16.719 11.675,16.3857 12.5,15.5C 13.5543,13.7988 14.5543,12.1321 15.5,10.5C 16.3984,9.84233 17.3984,9.17566 18.5,8.5C 18.6773,3.27683 17.844,3.27683 16,8.5C 15.2917,7.61947 14.4584,6.9528 13.5,6.5C 13.5,5.83333 13.5,5.16667 13.5,4.5C 16.5589,4.20344 19.0589,2.87011 21,0.5C 21.6172,1.44915 21.4506,2.28248 20.5,3C 21.7195,4.79472 22.7195,4.62805 23.5,2.5 Z"/></g>
<g><path style="opacity:1" fill="#191414" d="M 33.5,9.5 C 32.4706,11.5168 31.4706,13.5168 30.5,15.5C 28.8546,16.4787 27.5213,17.812 26.5,19.5C 25.8933,19.3764 25.56,19.0431 25.5,18.5C 25.5,16.8333 25.5,15.1667 25.5,13.5C 24.5,13.5 23.5,13.5 22.5,13.5C 26.9627,12.7036 29.296,10.0369 29.5,5.5C 30.9354,6.09647 32.602,6.09647 34.5,5.5C 34.5,4.16667 34.5,2.83333 34.5,1.5C 35.8221,1.66997 36.9887,1.33663 38,0.5C 39.3247,5.18826 37.4914,7.68826 32.5,8C 33.056,8.38258 33.3893,8.88258 33.5,9.5 Z"/></g>
<g><path style="opacity:1" fill="#a98162" d="M 1.5,9.5 C 1.16667,10.1667 0.833333,10.8333 0.5,11.5C 0.166667,11.5 -0.166667,11.5 -0.5,11.5C -0.5,8.5 -0.5,5.5 -0.5,2.5C 0.58956,0.236692 1.92289,0.0700251 3.5,2C 2.77979,4.49076 2.11312,6.99076 1.5,9.5 Z"/></g>
<g><path style="opacity:1" fill="#2e2120" d="M 62.5,7.5 C 64.463,6.8316 66.463,6.49827 68.5,6.5C 71.6195,7.35779 74.6195,8.35779 77.5,9.5C 77.5,10.5 77.5,11.5 77.5,12.5C 77.631,13.2389 77.4643,13.9056 77,14.5C 76.7508,13.376 76.2508,12.376 75.5,11.5C 73.7988,12.802 72.6322,14.4687 72,16.5C 71.296,14.273 70.1294,13.9397 68.5,15.5C 66.7675,12.5623 64.7675,9.89563 62.5,7.5 Z"/></g>
<g><path style="opacity:1" fill="#1b1515" d="M 53.5,9.5 C 55.7773,9.86341 56.4439,10.8634 55.5,12.5C 56.2511,15.9345 57.2511,19.2679 58.5,22.5C 57.6805,25.3054 57.1805,28.3054 57,31.5C 56.3151,25.9189 55.1485,20.5856 53.5,15.5C 53.5,14.8333 53.1667,14.5 52.5,14.5C 51.4036,11.6144 49.4036,9.61437 46.5,8.5C 46.5,8.16667 46.5,7.83333 46.5,7.5C 46.2746,5.28411 47.1079,3.61744 49,2.5C 49.6125,5.50953 51.1125,7.84286 53.5,9.5 Z"/></g>
<g><path style="opacity:1" fill="#483433" d="M 15.5,10.5 C 13.3925,10.7221 11.7258,11.7221 10.5,13.5C 9.58317,12.8728 8.58317,12.5394 7.5,12.5C 7.26269,11.209 7.59603,10.209 8.5,9.5C 9.39695,8.40191 10.2303,8.40191 11,9.5C 11.2355,7.88066 12.0689,6.88066 13.5,6.5C 14.4584,6.9528 15.2917,7.61947 16,8.5C 17.844,3.27683 18.6773,3.27683 18.5,8.5C 17.3984,9.17566 16.3984,9.84233 15.5,10.5 Z"/></g>
<g><path style="opacity:1" fill="#6a4a3f" d="M 1.5,9.5 C 3.5,10.5 5.5,11.5 7.5,12.5C 8.58317,12.5394 9.58317,12.8728 10.5,13.5C 11.7258,11.7221 13.3925,10.7221 15.5,10.5C 14.5543,12.1321 13.5543,13.7988 12.5,15.5C 11.675,16.3857 10.675,16.719 9.5,16.5C 7.77514,13.7118 5.44181,12.7118 2.5,13.5C 1.81815,12.7573 1.15149,12.0906 0.5,11.5C 0.833333,10.8333 1.16667,10.1667 1.5,9.5 Z"/></g>
<g><path style="opacity:1" fill="#251d1e" d="M 21.5,9.5 C 21.6107,10.1174 21.944,10.6174 22.5,11C 20.1582,12.3919 20.1582,13.2252 22.5,13.5C 23.5,13.5 24.5,13.5 25.5,13.5C 25.5,15.1667 25.5,16.8333 25.5,18.5C 24.0609,19.5092 22.7276,19.1759 21.5,17.5C 20.7025,17.9569 20.3691,18.6236 20.5,19.5C 18.6776,19.1692 17.0109,18.5025 15.5,17.5C 17.2754,15.3645 17.9421,13.0312 17.5,10.5C 19.2193,11.7887 20.5526,11.4554 21.5,9.5 Z"/></g>
<g><path style="opacity:1" fill="#372828" d="M 62.5,7.5 C 64.7675,9.89563 66.7675,12.5623 68.5,15.5C 67.609,16.1098 66.609,16.4431 65.5,16.5C 65.5654,16.0618 65.3988,15.7284 65,15.5C 64.5017,17.5444 63.335,18.8777 61.5,19.5C 61.6775,18.3052 62.0109,17.1385 62.5,16C 62.1667,15.5 61.8333,15 61.5,14.5C 59.0903,17.0813 58.4236,16.748 59.5,13.5C 60.6484,11.0852 59.9817,9.08516 57.5,7.5C 59.0992,6.43795 60.7659,6.43795 62.5,7.5 Z"/></g>
<g><path style="opacity:1" fill="#3a2826" d="M 77.5,12.5 C 78.1667,12.8333 78.8333,13.1667 79.5,13.5C 79.5,16.1667 79.5,18.8333 79.5,21.5C 78.7611,21.369 78.0944,21.5357 77.5,22C 78.9456,25.8817 78.2789,26.3817 75.5,23.5C 75.5,22.5 75.5,21.5 75.5,20.5C 73.3487,18.0161 71.0154,18.0161 68.5,20.5C 67.0656,19.4116 66.0656,18.0783 65.5,16.5C 66.609,16.4431 67.609,16.1098 68.5,15.5C 70.1294,13.9397 71.296,14.273 72,16.5C 72.6322,14.4687 73.7988,12.802 75.5,11.5C 76.2508,12.376 76.7508,13.376 77,14.5C 77.4643,13.9056 77.631,13.2389 77.5,12.5 Z"/></g>
<g><path style="opacity:1" fill="#7a5543" d="M -0.5,11.5 C -0.166667,11.5 0.166667,11.5 0.5,11.5C 1.15149,12.0906 1.81815,12.7573 2.5,13.5C 5.44181,12.7118 7.77514,13.7118 9.5,16.5C 9.38929,17.1174 9.05596,17.6174 8.5,18C 9.82277,18.8159 10.4894,19.9826 10.5,21.5C 10.1667,21.5 9.83333,21.5 9.5,21.5C 8.5,22.8333 7.5,22.8333 6.5,21.5C 5.82543,19.7168 5.4921,18.0502 5.5,16.5C 4.26515,16.2786 3.26515,15.6119 2.5,14.5C 1.73485,15.6119 0.734849,16.2786 -0.5,16.5C -0.5,14.8333 -0.5,13.1667 -0.5,11.5 Z"/></g>
<g><path style="opacity:1" fill="#c07d60" d="M 43.5,9.5 C 45.3904,9.2965 46.8904,9.96317 48,11.5C 48.2401,15.2519 48.7401,18.9186 49.5,22.5C 48.1667,22.5 46.8333,22.5 45.5,22.5C 44.3818,19.1449 44.3818,15.8116 45.5,12.5C 44.8075,11.4822 44.1408,10.4822 43.5,9.5 Z"/></g>
<g><path style="opacity:1" fill="#8b533f" d="M 37.5,8.5 C 40.5,8.5 43.5,8.5 46.5,8.5C 49.4036,9.61437 51.4036,11.6144 52.5,14.5C 52.4595,17.8806 52.7929,21.2139 53.5,24.5C 51.5,24.5 49.5,24.5 47.5,24.5C 48.2625,23.7321 49.2625,23.2321 50.5,23C 50.2716,22.6012 49.9382,22.4346 49.5,22.5C 48.7401,18.9186 48.2401,15.2519 48,11.5C 46.8904,9.96317 45.3904,9.2965 43.5,9.5C 40.9899,9.05351 38.9899,9.72017 37.5,11.5C 37.1667,12.1667 36.8333,12.8333 36.5,13.5C 35.5,14.1667 34.5,14.8333 33.5,15.5C 34.8056,13.1838 36.1389,10.8505 37.5,8.5 Z"/></g>
<g><path style="opacity:1" fill="#e4b5a4" d="M 36.5,13.5 C 37.8333,13.5 39.1667,13.5 40.5,13.5C 41.4263,17.9296 40.0929,21.2629 36.5,23.5C 34.8211,23.1077 33.1545,22.6077 31.5,22C 32.3972,19.9129 33.0639,17.7463 33.5,15.5C 34.5,14.8333 35.5,14.1667 36.5,13.5 Z"/></g>
<g><path style="opacity:1" fill="#413230" d="M 59.5,13.5 C 58.4236,16.748 59.0903,17.0813 61.5,14.5C 61.8333,15 62.1667,15.5 62.5,16C 62.0109,17.1385 61.6775,18.3052 61.5,19.5C 59.1882,21.6523 59.5215,23.6523 62.5,25.5C 61.1667,25.5 59.8333,25.5 58.5,25.5C 59.8333,24.5 59.8333,23.5 58.5,22.5C 57.2511,19.2679 56.2511,15.9345 55.5,12.5C 56.4439,10.8634 55.7773,9.86341 53.5,9.5C 53.3691,8.62356 53.7025,7.95689 54.5,7.5C 56.914,8.91083 58.5806,10.9108 59.5,13.5 Z"/></g>
<g><path style="opacity:1" fill="#cf8c6d" d="M 43.5,9.5 C 44.1408,10.4822 44.8075,11.4822 45.5,12.5C 44.3818,15.8116 44.3818,19.1449 45.5,22.5C 46.8333,22.5 48.1667,22.5 49.5,22.5C 49.9382,22.4346 50.2716,22.6012 50.5,23C 49.2625,23.2321 48.2625,23.7321 47.5,24.5C 45.9382,24.7329 44.6049,25.3995 43.5,26.5C 42.2521,27.3339 41.5854,28.6672 41.5,30.5C 42.4301,33.5631 42.4301,36.5631 41.5,39.5C 39.901,39.7678 38.5676,39.4345 37.5,38.5C 38.5,38.5 39.5,38.5 40.5,38.5C 40.5,35.1667 40.5,31.8333 40.5,28.5C 40.1583,27.6618 39.4916,27.3284 38.5,27.5C 38.5,26.5 38.5,25.5 38.5,24.5C 39.8221,24.67 40.9887,24.3366 42,23.5C 42.499,19.1794 42.6657,14.8461 42.5,10.5C 40.7839,10.6287 39.1172,10.962 37.5,11.5C 38.9899,9.72017 40.9899,9.05351 43.5,9.5 Z"/></g>
<g><path style="opacity:1" fill="#2b2122" d="M 15.5,17.5 C 17.0109,18.5025 18.6776,19.1692 20.5,19.5C 20.0986,20.991 19.932,22.6577 20,24.5C 18.917,26.2407 17.7503,26.9074 16.5,26.5C 15.8485,25.9094 15.1818,25.2427 14.5,24.5C 13.3298,26.3397 12.3298,28.0063 11.5,29.5C 10.9045,26.8875 10.0712,26.8875 9,29.5C 8.24383,27.1913 8.74383,25.1913 10.5,23.5C 10.3764,22.8933 10.0431,22.56 9.5,22.5C 9.5,22.1667 9.5,21.8333 9.5,21.5C 9.83333,21.5 10.1667,21.5 10.5,21.5C 12.889,21.0212 14.5557,19.6879 15.5,17.5 Z"/></g>
<g><path style="opacity:1" fill="#d89d83" d="M 38.5,24.5 C 37.8333,24.1667 37.1667,23.8333 36.5,23.5C 40.0929,21.2629 41.4263,17.9296 40.5,13.5C 39.1667,13.5 37.8333,13.5 36.5,13.5C 36.8333,12.8333 37.1667,12.1667 37.5,11.5C 39.1172,10.962 40.7839,10.6287 42.5,10.5C 42.6657,14.8461 42.499,19.1794 42,23.5C 40.9887,24.3366 39.8221,24.67 38.5,24.5 Z"/></g>
<g><path style="opacity:1" fill="#594037" d="M 65.5,16.5 C 66.0656,18.0783 67.0656,19.4116 68.5,20.5C 71.0154,18.0161 73.3487,18.0161 75.5,20.5C 73.6096,20.2965 72.1096,20.9632 71,22.5C 68.5728,21.433 68.0728,22.0997 69.5,24.5C 68.8333,24.5 68.1667,24.5 67.5,24.5C 66.209,24.2627 65.209,24.596 64.5,25.5C 63.8333,25.5 63.1667,25.5 62.5,25.5C 59.5215,23.6523 59.1882,21.6523 61.5,19.5C 63.335,18.8777 64.5017,17.5444 65,15.5C 65.3988,15.7284 65.5654,16.0618 65.5,16.5 Z"/></g>
<g><path style="opacity:1" fill="#442c28" d="M 30.5,15.5 C 30.6495,16.552 30.4828,17.552 30,18.5C 26.5072,20.484 24.0072,23.1507 22.5,26.5C 20.5979,28.1511 18.5979,28.4845 16.5,27.5C 16.5,27.1667 16.5,26.8333 16.5,26.5C 17.7503,26.9074 18.917,26.2407 20,24.5C 19.932,22.6577 20.0986,20.991 20.5,19.5C 20.3691,18.6236 20.7025,17.9569 21.5,17.5C 22.7276,19.1759 24.0609,19.5092 25.5,18.5C 25.56,19.0431 25.8933,19.3764 26.5,19.5C 27.5213,17.812 28.8546,16.4787 30.5,15.5 Z"/></g>
<g><path style="opacity:1" fill="#6b3a2e" d="M 37.5,8.5 C 36.1389,10.8505 34.8056,13.1838 33.5,15.5C 32.8826,15.6107 32.3826,15.944 32,16.5C 30.85,20.1117 30.0166,23.7783 29.5,27.5C 28.7611,27.369 28.0944,27.5357 27.5,28C 29.0581,28.21 30.3915,28.71 31.5,29.5C 29.0799,29.2924 26.7466,29.6258 24.5,30.5C 22.4317,33.2746 21.0984,36.2746 20.5,39.5C 20.8687,35.1059 21.5354,30.7726 22.5,26.5C 24.0072,23.1507 26.5072,20.484 30,18.5C 30.4828,17.552 30.6495,16.552 30.5,15.5C 31.4706,13.5168 32.4706,11.5168 33.5,9.5C 34.8333,9.16667 36.1667,8.83333 37.5,8.5 Z"/></g>
<g><path style="opacity:1" fill="#957256" d="M 75.5,20.5 C 75.5,21.5 75.5,22.5 75.5,23.5C 74.596,24.209 74.2627,25.209 74.5,26.5C 72.8333,25.8333 71.1667,25.1667 69.5,24.5C 68.0728,22.0997 68.5728,21.433 71,22.5C 72.1096,20.9632 73.6096,20.2965 75.5,20.5 Z"/></g>
<g><path style="opacity:1" fill="#3d2b2a" d="M 5.5,16.5 C 5.4921,18.0502 5.82543,19.7168 6.5,21.5C 6.20364,24.2625 5.20364,26.7625 3.5,29C 6.18348,31.1216 5.85015,32.6216 2.5,33.5C 2.01303,28.3461 2.01303,23.3461 2.5,18.5C 3.60164,17.8243 4.60164,17.1577 5.5,16.5 Z"/></g>
<g><path style="opacity:1" fill="#603c31" d="M 52.5,14.5 C 53.1667,14.5 53.5,14.8333 53.5,15.5C 54.239,19.0151 54.239,22.3485 53.5,25.5C 51.8008,25.3398 50.1341,25.5065 48.5,26C 47.244,26.4169 46.5774,27.2502 46.5,28.5C 44.8946,29.0059 44.5613,29.6726 45.5,30.5C 44.791,31.404 43.791,31.7373 42.5,31.5C 42.366,29.7085 42.6993,28.0418 43.5,26.5C 44.6049,25.3995 45.9382,24.7329 47.5,24.5C 49.5,24.5 51.5,24.5 53.5,24.5C 52.7929,21.2139 52.4595,17.8806 52.5,14.5 Z"/></g>
<g><path style="opacity:1" fill="#b1745e" d="M 33.5,15.5 C 33.0639,17.7463 32.3972,19.9129 31.5,22C 33.1545,22.6077 34.8211,23.1077 36.5,23.5C 37.1667,23.8333 37.8333,24.1667 38.5,24.5C 38.5,25.5 38.5,26.5 38.5,27.5C 38.1667,28.5 37.5,29.1667 36.5,29.5C 36.2131,27.8793 35.2131,26.8793 33.5,26.5C 32.2638,27.2458 30.9305,27.5792 29.5,27.5C 30.0166,23.7783 30.85,20.1117 32,16.5C 32.3826,15.944 32.8826,15.6107 33.5,15.5 Z"/></g>
<g><path style="opacity:1" fill="#925d47" d="M 53.5,25.5 C 53.5,25.8333 53.5,26.1667 53.5,26.5C 53.631,27.2389 53.4643,27.9056 53,28.5C 50.8797,27.3947 48.7131,27.3947 46.5,28.5C 46.5774,27.2502 47.244,26.4169 48.5,26C 50.1341,25.5065 51.8008,25.3398 53.5,25.5 Z"/></g>
<g><path style="opacity:1" fill="#60473f" d="M 79.5,21.5 C 79.5,30.5 79.5,39.5 79.5,48.5C 77.5544,47.9653 76.5544,46.632 76.5,44.5C 77.8333,44.1667 77.8333,43.8333 76.5,43.5C 76.5106,41.9826 77.1772,40.8159 78.5,40C 77.3147,38.647 75.9814,37.4803 74.5,36.5C 76.435,35.787 76.7683,34.787 75.5,33.5C 79.3976,30.6897 79.0642,28.3564 74.5,26.5C 74.2627,25.209 74.596,24.209 75.5,23.5C 78.2789,26.3817 78.9456,25.8817 77.5,22C 78.0944,21.5357 78.7611,21.369 79.5,21.5 Z"/></g>
<g><path style="opacity:1" fill="#2e1d1c" d="M 36.5,29.5 C 36.1667,29.5 35.8333,29.5 35.5,29.5C 34.1667,29.5 32.8333,29.5 31.5,29.5C 30.3915,28.71 29.0581,28.21 27.5,28C 28.0944,27.5357 28.7611,27.369 29.5,27.5C 30.9305,27.5792 32.2638,27.2458 33.5,26.5C 35.2131,26.8793 36.2131,27.8793 36.5,29.5 Z"/></g>
<g><path style="opacity:1" fill="#42302b" d="M 67.5,25.5 C 67.5,25.1667 67.5,24.8333 67.5,24.5C 68.1667,24.5 68.8333,24.5 69.5,24.5C 71.1667,25.1667 72.8333,25.8333 74.5,26.5C 79.0642,28.3564 79.3976,30.6897 75.5,33.5C 75.19,32.2617 74.69,32.2617 74,33.5C 73.4472,29.4536 71.2806,26.7869 67.5,25.5 Z"/></g>
<g><path style="opacity:1" fill="#3a2d2d" d="M 58.5,25.5 C 59.8333,25.5 61.1667,25.5 62.5,25.5C 63.1667,25.5 63.8333,25.5 64.5,25.5C 64.4211,27.6663 63.7545,29.6663 62.5,31.5C 62.5427,32.4164 62.8761,33.0831 63.5,33.5C 62.9653,35.4456 61.632,36.4456 59.5,36.5C 58.7564,32.8815 58.423,29.2148 58.5,25.5 Z"/></g>
<g><path style="opacity:1" fill="#37292a" d="M 9.5,22.5 C 10.0431,22.56 10.3764,22.8933 10.5,23.5C 8.74383,25.1913 8.24383,27.1913 9,29.5C 10.0712,26.8875 10.9045,26.8875 11.5,29.5C 9.85502,30.4507 8.85502,32.4507 8.5,35.5C 6.89578,36.287 6.22911,37.6203 6.5,39.5C 6.16667,39.5 5.83333,39.5 5.5,39.5C 4.80314,37.9293 4.46981,36.4293 4.5,35C 6.84773,32.646 7.5144,29.9794 6.5,27C 7.38619,25.3853 8.38619,23.8853 9.5,22.5 Z"/></g>
<g><path style="opacity:1" fill="#362624" d="M 22.5,26.5 C 21.5354,30.7726 20.8687,35.1059 20.5,39.5C 20.5,39.8333 20.5,40.1667 20.5,40.5C 18.2239,40.7565 17.0572,42.0898 17,44.5C 16.5172,43.552 16.3505,42.552 16.5,41.5C 16.5,41.1667 16.5,40.8333 16.5,40.5C 18.7845,37.2407 19.6178,33.5741 19,29.5C 18.1995,32.2841 16.6995,34.6174 14.5,36.5C 13.5,35.5 12.5,34.5 11.5,33.5C 12.8241,31.0577 14.4908,29.0577 16.5,27.5C 18.5979,28.4845 20.5979,28.1511 22.5,26.5 Z"/></g>
<g><path style="opacity:1" fill="#573e39" d="M 5.5,16.5 C 4.60164,17.1577 3.60164,17.8243 2.5,18.5C 2.01303,23.3461 2.01303,28.3461 2.5,33.5C 1.5,34.1667 0.5,34.8333 -0.5,35.5C -0.5,29.1667 -0.5,22.8333 -0.5,16.5C 0.734849,16.2786 1.73485,15.6119 2.5,14.5C 3.26515,15.6119 4.26515,16.2786 5.5,16.5 Z"/></g>
<g><path style="opacity:1" fill="#1e1717" d="M 16.5,26.5 C 16.5,26.8333 16.5,27.1667 16.5,27.5C 14.4908,29.0577 12.8241,31.0577 11.5,33.5C 12.5,34.5 13.5,35.5 14.5,36.5C 16.6995,34.6174 18.1995,32.2841 19,29.5C 19.6178,33.5741 18.7845,37.2407 16.5,40.5C 15.5,40.5 14.5,40.5 13.5,40.5C 11.712,40.7852 10.0453,40.4519 8.5,39.5C 9.36288,38.2736 9.36288,36.9403 8.5,35.5C 8.85502,32.4507 9.85502,30.4507 11.5,29.5C 12.3298,28.0063 13.3298,26.3397 14.5,24.5C 15.1818,25.2427 15.8485,25.9094 16.5,26.5 Z"/></g>
<g><path style="opacity:1" fill="#251a19" d="M 53.5,15.5 C 55.1485,20.5856 56.3151,25.9189 57,31.5C 57.1805,28.3054 57.6805,25.3054 58.5,22.5C 59.8333,23.5 59.8333,24.5 58.5,25.5C 58.423,29.2148 58.7564,32.8815 59.5,36.5C 58.0311,33.8999 57.0311,34.2332 56.5,37.5C 56.7845,39.4147 56.4511,41.0813 55.5,42.5C 55.6658,37.8215 55.4992,33.1548 55,28.5C 54.7216,27.5842 54.2216,26.9175 53.5,26.5C 53.5,26.1667 53.5,25.8333 53.5,25.5C 54.239,22.3485 54.239,19.0151 53.5,15.5 Z"/></g>
<g><path style="opacity:1" fill="#e0a58c" d="M 38.5,27.5 C 39.4916,27.3284 40.1583,27.6618 40.5,28.5C 39.3994,29.8484 38.3994,31.3484 37.5,33C 33.5126,34.5054 29.5126,34.6721 25.5,33.5C 25.6107,32.8826 25.944,32.3826 26.5,32C 29.1667,31.6667 31.8333,31.3333 34.5,31C 35.056,30.6174 35.3893,30.1174 35.5,29.5C 35.8333,29.5 36.1667,29.5 36.5,29.5C 37.5,29.1667 38.1667,28.5 38.5,27.5 Z"/></g>
<g><path style="opacity:1" fill="#362727" d="M 67.5,25.5 C 71.2806,26.7869 73.4472,29.4536 74,33.5C 74.69,32.2617 75.19,32.2617 75.5,33.5C 76.7683,34.787 76.435,35.787 74.5,36.5C 75.9814,37.4803 77.3147,38.647 78.5,40C 77.1772,40.8159 76.5106,41.9826 76.5,43.5C 75.5655,42.4324 75.2322,41.099 75.5,39.5C 74.0413,39.4326 72.7079,39.7659 71.5,40.5C 72.1812,38.0336 71.5145,35.7003 69.5,33.5C 67.7749,32.9851 66.1083,32.3184 64.5,31.5C 65.6869,31.4464 67.0202,31.1131 68.5,30.5C 67.8333,30.1667 67.1667,29.8333 66.5,29.5C 67.2458,28.2638 67.5792,26.9305 67.5,25.5 Z"/></g>
<g><path style="opacity:1" fill="#443333" d="M 6.5,21.5 C 7.5,22.8333 8.5,22.8333 9.5,21.5C 9.5,21.8333 9.5,22.1667 9.5,22.5C 8.38619,23.8853 7.38619,25.3853 6.5,27C 7.5144,29.9794 6.84773,32.646 4.5,35C 4.46981,36.4293 4.80314,37.9293 5.5,39.5C 4.0357,38.5946 2.70236,38.5946 1.5,39.5C 0.833333,39.8333 0.166667,40.1667 -0.5,40.5C -0.5,38.8333 -0.5,37.1667 -0.5,35.5C 0.5,34.8333 1.5,34.1667 2.5,33.5C 5.85015,32.6216 6.18348,31.1216 3.5,29C 5.20364,26.7625 6.20364,24.2625 6.5,21.5 Z"/></g>
<g><path style="opacity:1" fill="#ebb199" d="M 40.5,28.5 C 40.5,31.8333 40.5,35.1667 40.5,38.5C 39.5,38.5 38.5,38.5 37.5,38.5C 33.5,39.1667 33.5,39.8333 37.5,40.5C 37.5,41.5 37.5,42.5 37.5,43.5C 35.5,43.5 33.5,43.5 31.5,43.5C 30.6236,43.6309 29.9569,43.2975 29.5,42.5C 30.2531,40.2466 31.5864,38.4133 33.5,37C 31.5646,37.0579 29.8979,37.8912 28.5,39.5C 27.1667,39.5 25.8333,39.5 24.5,39.5C 24.2053,37.2646 24.5386,35.2646 25.5,33.5C 29.5126,34.6721 33.5126,34.5054 37.5,33C 38.3994,31.3484 39.3994,29.8484 40.5,28.5 Z"/></g>
<g><path style="opacity:1" fill="#9a5d47" d="M 43.5,26.5 C 42.6993,28.0418 42.366,29.7085 42.5,31.5C 43.791,31.7373 44.791,31.404 45.5,30.5C 47.6792,31.0592 49.8458,31.7259 52,32.5C 52.772,32.3552 53.4387,32.0219 54,31.5C 54.8075,35.0267 54.6408,38.3601 53.5,41.5C 51.9213,44.2682 50.588,47.2682 49.5,50.5C 50.2089,47.7548 50.2089,44.7548 49.5,41.5C 50.7079,40.7659 52.0413,40.4326 53.5,40.5C 53.5,38.1667 53.5,35.8333 53.5,33.5C 50.7531,33.1866 48.0865,33.52 45.5,34.5C 46.2458,35.7362 46.5792,37.0695 46.5,38.5C 44.9582,39.3007 43.2915,39.634 41.5,39.5C 42.4301,36.5631 42.4301,33.5631 41.5,30.5C 41.5854,28.6672 42.2521,27.3339 43.5,26.5 Z"/></g>
<g><path style="opacity:1" fill="#472b24" d="M 53.5,26.5 C 54.2216,26.9175 54.7216,27.5842 55,28.5C 55.4992,33.1548 55.6658,37.8215 55.5,42.5C 55.7678,44.099 55.4345,45.4324 54.5,46.5C 54.3713,44.7839 54.038,43.1172 53.5,41.5C 54.6408,38.3601 54.8075,35.0267 54,31.5C 53.4387,32.0219 52.772,32.3552 52,32.5C 49.8458,31.7259 47.6792,31.0592 45.5,30.5C 44.5613,29.6726 44.8946,29.0059 46.5,28.5C 48.7131,27.3947 50.8797,27.3947 53,28.5C 53.4643,27.9056 53.631,27.2389 53.5,26.5 Z"/></g>
<g><path style="opacity:1" fill="#bf7658" d="M 31.5,29.5 C 32.8333,29.5 34.1667,29.5 35.5,29.5C 35.3893,30.1174 35.056,30.6174 34.5,31C 31.8333,31.3333 29.1667,31.6667 26.5,32C 25.944,32.3826 25.6107,32.8826 25.5,33.5C 24.5386,35.2646 24.2053,37.2646 24.5,39.5C 25.8333,39.5 27.1667,39.5 28.5,39.5C 27.2437,41.941 27.2437,44.2743 28.5,46.5C 28.5,47.1667 28.5,47.8333 28.5,48.5C 27.8826,48.3893 27.3826,48.056 27,47.5C 26.6667,45.5 26.3333,43.5 26,41.5C 25.0723,43.3348 23.9056,43.6682 22.5,42.5C 21.6143,43.325 21.281,44.325 21.5,45.5C 20.5489,44.0813 20.2155,42.4147 20.5,40.5C 20.5,40.1667 20.5,39.8333 20.5,39.5C 21.0984,36.2746 22.4317,33.2746 24.5,30.5C 26.7466,29.6258 29.0799,29.2924 31.5,29.5 Z"/></g>
<g><path style="opacity:1" fill="#ce886b" d="M 49.5,41.5 C 48.2719,40.6935 47.2719,39.6935 46.5,38.5C 46.5792,37.0695 46.2458,35.7362 45.5,34.5C 48.0865,33.52 50.7531,33.1866 53.5,33.5C 53.5,35.8333 53.5,38.1667 53.5,40.5C 52.0413,40.4326 50.7079,40.7659 49.5,41.5 Z"/></g>
<g><path style="opacity:1" fill="#372a28" d="M 63.5,33.5 C 65.0858,34.1481 66.7525,34.6481 68.5,35C 66.0958,35.5079 65.4291,36.6745 66.5,38.5C 65.91,39.7989 64.91,40.6322 63.5,41C 64.2438,42.0386 65.2438,42.5386 66.5,42.5C 66.1898,48.0969 66.1898,53.4302 66.5,58.5C 65.2652,58.2786 64.2652,57.6119 63.5,56.5C 62.8165,56.8627 62.1499,57.1961 61.5,57.5C 60.596,56.791 60.2627,55.791 60.5,54.5C 64.5841,55.0547 65.2508,54.0547 62.5,51.5C 62.9767,50.5224 63.6433,49.6891 64.5,49C 63.7362,46.9307 63.2362,44.764 63,42.5C 61.1805,40.8679 60.0138,38.8679 59.5,36.5C 61.632,36.4456 62.9653,35.4456 63.5,33.5 Z"/></g>
<g><path style="opacity:1" fill="#291e1f" d="M 67.5,24.5 C 67.5,24.8333 67.5,25.1667 67.5,25.5C 67.5792,26.9305 67.2458,28.2638 66.5,29.5C 67.1667,29.8333 67.8333,30.1667 68.5,30.5C 67.0202,31.1131 65.6869,31.4464 64.5,31.5C 66.1083,32.3184 67.7749,32.9851 69.5,33.5C 71.5145,35.7003 72.1812,38.0336 71.5,40.5C 69.302,40.1201 67.6354,40.7868 66.5,42.5C 65.2438,42.5386 64.2438,42.0386 63.5,41C 64.91,40.6322 65.91,39.7989 66.5,38.5C 65.4291,36.6745 66.0958,35.5079 68.5,35C 66.7525,34.6481 65.0858,34.1481 63.5,33.5C 62.8761,33.0831 62.5427,32.4164 62.5,31.5C 63.7545,29.6663 64.4211,27.6663 64.5,25.5C 65.209,24.596 66.209,24.2627 67.5,24.5 Z"/></g>
<g><path style="opacity:1" fill="#6b3428" d="M 31.5,43.5 C 31.5,44.1667 31.5,44.8333 31.5,45.5C 30.8333,45.5 30.1667,45.5 29.5,45.5C 28.8333,45.5 28.5,45.8333 28.5,46.5C 27.2437,44.2743 27.2437,41.941 28.5,39.5C 29.8979,37.8912 31.5646,37.0579 33.5,37C 31.5864,38.4133 30.2531,40.2466 29.5,42.5C 29.9569,43.2975 30.6236,43.6309 31.5,43.5 Z"/></g>
<g><path style="opacity:1" fill="#ad6153" d="M 37.5,38.5 C 38.5676,39.4345 39.901,39.7678 41.5,39.5C 40.7375,40.2679 39.7375,40.7679 38.5,41C 40.2495,42.3186 42.2495,42.8186 44.5,42.5C 43.3933,44.9689 41.3933,45.9689 38.5,45.5C 36.1667,45.5 33.8333,45.5 31.5,45.5C 31.5,44.8333 31.5,44.1667 31.5,43.5C 33.5,43.5 35.5,43.5 37.5,43.5C 37.5,42.5 37.5,41.5 37.5,40.5C 33.5,39.8333 33.5,39.1667 37.5,38.5 Z"/></g>
<g><path style="opacity:1" fill="#2a2121" d="M 8.5,35.5 C 9.36288,36.9403 9.36288,38.2736 8.5,39.5C 10.0453,40.4519 11.712,40.7852 13.5,40.5C 12.8333,41.8333 12.1667,43.1667 11.5,44.5C 10.8826,44.3893 10.3826,44.056 10,43.5C 9.4005,45.9096 8.23383,47.9096 6.5,49.5C 6.08247,48.7784 5.4158,48.2784 4.5,48C 5.05596,47.6174 5.38929,47.1174 5.5,46.5C 7.74237,44.5481 8.0757,42.2148 6.5,39.5C 6.22911,37.6203 6.89578,36.287 8.5,35.5 Z"/></g>
<g><path style="opacity:1" fill="#221c1c" d="M 13.5,40.5 C 14.5,40.5 15.5,40.5 16.5,40.5C 16.5,40.8333 16.5,41.1667 16.5,41.5C 15.8676,44.3623 14.8676,47.1956 13.5,50C 15.8086,51.866 17.1419,54.0327 17.5,56.5C 17.7565,58.7761 19.0898,59.9428 21.5,60C 20.4293,60.8518 19.4293,61.6851 18.5,62.5C 17.209,62.7373 16.209,62.404 15.5,61.5C 15.141,60.3742 13.8076,59.7075 11.5,59.5C 10.1508,59.8457 8.81748,60.179 7.5,60.5C 7.9528,59.5416 8.61947,58.7083 9.5,58C 8.82881,57.0138 8.82881,55.8471 9.5,54.5C 10.6448,53.2073 10.3115,52.0407 8.5,51C 10.1654,49.1739 11.1654,47.0072 11.5,44.5C 12.1667,43.1667 12.8333,41.8333 13.5,40.5 Z"/></g>
<g><path style="opacity:1" fill="#4e2a20" d="M 46.5,38.5 C 46.8432,40.4832 46.1765,41.8166 44.5,42.5C 42.2495,42.8186 40.2495,42.3186 38.5,41C 39.7375,40.7679 40.7375,40.2679 41.5,39.5C 43.2915,39.634 44.9582,39.3007 46.5,38.5 Z"/></g>
<g><path style="opacity:1" fill="#141213" d="M 59.5,36.5 C 60.0138,38.8679 61.1805,40.8679 63,42.5C 63.2362,44.764 63.7362,46.9307 64.5,49C 63.6433,49.6891 62.9767,50.5224 62.5,51.5C 65.2508,54.0547 64.5841,55.0547 60.5,54.5C 60.2627,55.791 60.596,56.791 61.5,57.5C 60.6799,59.1401 59.8466,60.8068 59,62.5C 58.6174,61.944 58.1174,61.6107 57.5,61.5C 58.1534,60.1932 58.8201,58.8599 59.5,57.5C 59.1543,56.3044 58.6543,56.3044 58,57.5C 57.5078,56.451 57.6744,55.451 58.5,54.5C 58.0431,53.7025 57.3764,53.3691 56.5,53.5C 56.0632,50.1934 56.7298,47.1934 58.5,44.5C 57.9329,42.0177 57.2663,39.6843 56.5,37.5C 57.0311,34.2332 58.0311,33.8999 59.5,36.5 Z"/></g>
<g><path style="opacity:1" fill="#3b2c2c" d="M 5.5,39.5 C 5.83333,39.5 6.16667,39.5 6.5,39.5C 8.0757,42.2148 7.74237,44.5481 5.5,46.5C 4.5041,46.4142 3.67076,46.7476 3,47.5C 2.41452,45.8707 1.58118,44.3707 0.5,43C 0.989131,41.8615 1.32246,40.6948 1.5,39.5C 2.70236,38.5946 4.0357,38.5946 5.5,39.5 Z"/></g>
<g><path style="opacity:1" fill="#271f1f" d="M 66.5,42.5 C 68.3084,42.4914 69.9751,42.9914 71.5,44C 68.5348,47.5032 69.2014,50.5032 73.5,53C 72.1602,55.1489 72.8269,56.3155 75.5,56.5C 73.9275,57.6873 72.2608,58.6873 70.5,59.5C 69.5284,57.5069 68.1951,57.1736 66.5,58.5C 66.1898,53.4302 66.1898,48.0969 66.5,42.5 Z"/></g>
<g><path style="opacity:1" fill="#302424" d="M 76.5,43.5 C 77.8333,43.8333 77.8333,44.1667 76.5,44.5C 75.1751,45.9526 74.3418,45.6192 74,43.5C 72.5362,44.459 71.7028,45.7923 71.5,47.5C 73.532,49.6961 75.3653,52.0295 77,54.5C 77.6708,55.2524 78.5041,55.5858 79.5,55.5C 79.5,55.8333 79.5,56.1667 79.5,56.5C 77.8612,56.0742 76.5279,56.0742 75.5,56.5C 72.8269,56.3155 72.1602,55.1489 73.5,53C 69.2014,50.5032 68.5348,47.5032 71.5,44C 69.9751,42.9914 68.3084,42.4914 66.5,42.5C 67.6354,40.7868 69.302,40.1201 71.5,40.5C 72.7079,39.7659 74.0413,39.4326 75.5,39.5C 75.2322,41.099 75.5655,42.4324 76.5,43.5 Z"/></g>
<g><path style="opacity:1" fill="#110e0f" d="M 20.5,40.5 C 20.2155,42.4147 20.5489,44.0813 21.5,45.5C 21.9707,47.5786 22.6373,49.5786 23.5,51.5C 22.6715,52.3324 21.8382,51.999 21,50.5C 18.7723,51.8915 17.6056,53.8915 17.5,56.5C 17.1419,54.0327 15.8086,51.866 13.5,50C 14.8676,47.1956 15.8676,44.3623 16.5,41.5C 16.3505,42.552 16.5172,43.552 17,44.5C 17.0572,42.0898 18.2239,40.7565 20.5,40.5 Z"/></g>
<g><path style="opacity:1" fill="#241516" d="M 44.5,47.5 C 44.5,47.1667 44.5,46.8333 44.5,46.5C 45.531,45.7515 46.6976,45.0848 48,44.5C 48.3329,46.9342 47.1662,47.9342 44.5,47.5 Z"/></g>
<g><path style="opacity:1" fill="#e2d5ca" d="M 31.5,45.5 C 33.8333,45.5 36.1667,45.5 38.5,45.5C 40.2646,46.4614 42.2646,46.7947 44.5,46.5C 44.5,46.8333 44.5,47.1667 44.5,47.5C 43.209,47.2627 42.209,47.596 41.5,48.5C 37.6547,48.7122 34.3214,47.7122 31.5,45.5 Z"/></g>
<g><path style="opacity:1" fill="#392b2a" d="M 76.5,44.5 C 76.5544,46.632 77.5544,47.9653 79.5,48.5C 79.5,50.8333 79.5,53.1667 79.5,55.5C 78.5041,55.5858 77.6708,55.2524 77,54.5C 75.3653,52.0295 73.532,49.6961 71.5,47.5C 71.7028,45.7923 72.5362,44.459 74,43.5C 74.3418,45.6192 75.1751,45.9526 76.5,44.5 Z"/></g>
<g><path style="opacity:1" fill="#df6d74" d="M 29.5,45.5 C 30.1667,45.5 30.8333,45.5 31.5,45.5C 34.3214,47.7122 37.6547,48.7122 41.5,48.5C 42.791,48.2627 43.791,48.596 44.5,49.5C 42.0872,51.0507 39.4206,51.7174 36.5,51.5C 35.609,50.8902 34.609,50.5569 33.5,50.5C 32.1667,48.8333 30.8333,47.1667 29.5,45.5 Z"/></g>
<g><path style="opacity:1" fill="#cd8665" d="M 28.5,48.5 C 27.1667,50.1667 27.1667,51.8333 28.5,53.5C 27.8333,54.1667 27.1667,54.8333 26.5,55.5C 26.5,54.8333 26.1667,54.5 25.5,54.5C 25.0679,53.2905 24.4013,52.2905 23.5,51.5C 22.6373,49.5786 21.9707,47.5786 21.5,45.5C 21.281,44.325 21.6143,43.325 22.5,42.5C 23.9056,43.6682 25.0723,43.3348 26,41.5C 26.3333,43.5 26.6667,45.5 27,47.5C 27.3826,48.056 27.8826,48.3893 28.5,48.5 Z"/></g>
<g><path style="opacity:1" fill="#76473d" d="M 46.5,38.5 C 47.2719,39.6935 48.2719,40.6935 49.5,41.5C 50.2089,44.7548 50.2089,47.7548 49.5,50.5C 49.1667,51.5 48.5,52.1667 47.5,52.5C 47.5,50.5 46.5,49.5 44.5,49.5C 43.791,48.596 42.791,48.2627 41.5,48.5C 42.209,47.596 43.209,47.2627 44.5,47.5C 47.1662,47.9342 48.3329,46.9342 48,44.5C 46.6976,45.0848 45.531,45.7515 44.5,46.5C 42.2646,46.7947 40.2646,46.4614 38.5,45.5C 41.3933,45.9689 43.3933,44.9689 44.5,42.5C 46.1765,41.8166 46.8432,40.4832 46.5,38.5 Z"/></g>
<g><path style="opacity:1" fill="#583428" d="M 53.5,41.5 C 54.038,43.1172 54.3713,44.7839 54.5,46.5C 53.6916,49.4502 52.3582,52.1169 50.5,54.5C 49.5987,55.2905 48.9321,56.2905 48.5,57.5C 47.8333,57.8333 47.1667,58.1667 46.5,58.5C 46.3893,57.8826 46.056,57.3826 45.5,57C 47.0368,55.8904 47.7035,54.3904 47.5,52.5C 48.5,52.1667 49.1667,51.5 49.5,50.5C 50.588,47.2682 51.9213,44.2682 53.5,41.5 Z"/></g>
<g><path style="opacity:1" fill="#0b0a0c" d="M 56.5,37.5 C 57.2663,39.6843 57.9329,42.0177 58.5,44.5C 56.7298,47.1934 56.0632,50.1934 56.5,53.5C 55.0568,54.3351 54.0568,55.6684 53.5,57.5C 52.452,56.452 51.452,55.452 50.5,54.5C 52.3582,52.1169 53.6916,49.4502 54.5,46.5C 55.4345,45.4324 55.7678,44.099 55.5,42.5C 56.4511,41.0813 56.7845,39.4147 56.5,37.5 Z"/></g>
<g><path style="opacity:1" fill="#533f3c" d="M 1.5,39.5 C 1.32246,40.6948 0.989131,41.8615 0.5,43C 1.58118,44.3707 2.41452,45.8707 3,47.5C 3.67076,46.7476 4.5041,46.4142 5.5,46.5C 5.38929,47.1174 5.05596,47.6174 4.5,48C 5.4158,48.2784 6.08247,48.7784 6.5,49.5C 5.52216,49.811 4.85549,50.4777 4.5,51.5C 5.98842,53.8857 5.65509,54.5524 3.5,53.5C 2.16667,52.1667 0.833333,52.1667 -0.5,53.5C -0.5,49.1667 -0.5,44.8333 -0.5,40.5C 0.166667,40.1667 0.833333,39.8333 1.5,39.5 Z"/></g>
<g><path style="opacity:1" fill="#171314" d="M 23.5,51.5 C 24.4013,52.2905 25.0679,53.2905 25.5,54.5C 25.6883,57.9351 24.6883,60.9351 22.5,63.5C 22.1667,64.1667 21.8333,64.8333 21.5,65.5C 20.5,64.8333 19.5,64.1667 18.5,63.5C 18.5,63.1667 18.5,62.8333 18.5,62.5C 19.4293,61.6851 20.4293,60.8518 21.5,60C 19.0898,59.9428 17.7565,58.7761 17.5,56.5C 17.6056,53.8915 18.7723,51.8915 21,50.5C 21.8382,51.999 22.6715,52.3324 23.5,51.5 Z"/></g>
<g><path style="opacity:1" fill="#e1ab92" d="M 29.5,45.5 C 30.8333,47.1667 32.1667,48.8333 33.5,50.5C 34.9573,52.6282 35.9573,54.9616 36.5,57.5C 34.8333,57.5 33.1667,57.5 31.5,57.5C 30.5,56.1667 29.5,54.8333 28.5,53.5C 27.1667,51.8333 27.1667,50.1667 28.5,48.5C 28.5,47.8333 28.5,47.1667 28.5,46.5C 28.5,45.8333 28.8333,45.5 29.5,45.5 Z"/></g>
<g><path style="opacity:1" fill="#907b74" d="M 3.5,53.5 C 3.5,54.5 3.5,55.5 3.5,56.5C 2.77842,56.0825 2.27842,55.4158 2,54.5C 1.32924,55.2524 0.495904,55.5858 -0.5,55.5C -0.5,54.8333 -0.5,54.1667 -0.5,53.5C 0.833333,52.1667 2.16667,52.1667 3.5,53.5 Z"/></g>
<g><path style="opacity:1" fill="#322625" d="M 11.5,44.5 C 11.1654,47.0072 10.1654,49.1739 8.5,51C 10.3115,52.0407 10.6448,53.2073 9.5,54.5C 8.16667,55.8333 6.83333,57.1667 5.5,58.5C 4.83333,57.8333 4.16667,57.1667 3.5,56.5C 3.5,55.5 3.5,54.5 3.5,53.5C 5.65509,54.5524 5.98842,53.8857 4.5,51.5C 4.85549,50.4777 5.52216,49.811 6.5,49.5C 8.23383,47.9096 9.4005,45.9096 10,43.5C 10.3826,44.056 10.8826,44.3893 11.5,44.5 Z"/></g>
<g><path style="opacity:1" fill="#867b78" d="M 9.5,54.5 C 8.82881,55.8471 8.82881,57.0138 9.5,58C 8.61947,58.7083 7.9528,59.5416 7.5,60.5C 6.83333,60.1667 6.16667,59.8333 5.5,59.5C 5.5,59.1667 5.5,58.8333 5.5,58.5C 6.83333,57.1667 8.16667,55.8333 9.5,54.5 Z"/></g>
<g><path style="opacity:1" fill="#c9886d" d="M 33.5,50.5 C 34.609,50.5569 35.609,50.8902 36.5,51.5C 37.6782,52.9986 39.3449,53.9986 41.5,54.5C 42.1272,55.4168 42.4606,56.4168 42.5,57.5C 38.6992,58.7146 35.0326,58.7146 31.5,57.5C 33.1667,57.5 34.8333,57.5 36.5,57.5C 35.9573,54.9616 34.9573,52.6282 33.5,50.5 Z"/></g>
<g><path style="opacity:1" fill="#704636" d="M 44.5,49.5 C 46.5,49.5 47.5,50.5 47.5,52.5C 47.7035,54.3904 47.0368,55.8904 45.5,57C 46.056,57.3826 46.3893,57.8826 46.5,58.5C 45.1667,59.1667 43.8333,59.8333 42.5,60.5C 41.1667,59.5 41.1667,58.5 42.5,57.5C 42.4606,56.4168 42.1272,55.4168 41.5,54.5C 39.3449,53.9986 37.6782,52.9986 36.5,51.5C 39.4206,51.7174 42.0872,51.0507 44.5,49.5 Z"/></g>
<g><path style="opacity:1" fill="#100d0e" d="M 56.5,53.5 C 57.3764,53.3691 58.0431,53.7025 58.5,54.5C 57.6744,55.451 57.5078,56.451 58,57.5C 58.6543,56.3044 59.1543,56.3044 59.5,57.5C 58.8201,58.8599 58.1534,60.1932 57.5,61.5C 56.4863,62.6737 55.153,63.3404 53.5,63.5C 52.1667,63.5 50.8333,63.5 49.5,63.5C 49.6747,61.3792 49.3414,59.3792 48.5,57.5C 48.9321,56.2905 49.5987,55.2905 50.5,54.5C 51.452,55.452 52.452,56.452 53.5,57.5C 54.0568,55.6684 55.0568,54.3351 56.5,53.5 Z"/></g>
<g><path style="opacity:1" fill="#171815" d="M 79.5,56.5 C 79.5,57.8333 79.5,59.1667 79.5,60.5C 76.5757,60.8976 74.2424,62.231 72.5,64.5C 70.1667,64.5 67.8333,64.5 65.5,64.5C 63.7839,64.6287 62.1172,64.962 60.5,65.5C 61.8664,63.7287 63.3664,62.0621 65,60.5C 67.173,63.0673 69.0063,62.734 70.5,59.5C 72.2608,58.6873 73.9275,57.6873 75.5,56.5C 76.5279,56.0742 77.8612,56.0742 79.5,56.5 Z"/></g>
<g><path style="opacity:1" fill="#ded7d6" d="M 3.5,56.5 C 4.16667,57.1667 4.83333,57.8333 5.5,58.5C 5.5,58.8333 5.5,59.1667 5.5,59.5C 5.53944,60.5832 5.87277,61.5832 6.5,62.5C 3.88645,64.8914 1.88645,67.7247 0.5,71C 0.728446,71.3988 1.06178,71.5654 1.5,71.5C 1.5,71.8333 1.5,72.1667 1.5,72.5C 0.833333,72.8333 0.166667,73.1667 -0.5,73.5C -0.5,67.5 -0.5,61.5 -0.5,55.5C 0.495904,55.5858 1.32924,55.2524 2,54.5C 2.27842,55.4158 2.77842,56.0825 3.5,56.5 Z"/></g>
<g><path style="opacity:1" fill="#754836" d="M 31.5,57.5 C 35.0326,58.7146 38.6992,58.7146 42.5,57.5C 41.1667,58.5 41.1667,59.5 42.5,60.5C 40.3736,61.0482 38.3736,61.7148 36.5,62.5C 35.391,62.4431 34.391,62.1098 33.5,61.5C 32.5,60.8333 31.5,60.1667 30.5,59.5C 28.9689,58.0755 29.3023,57.4088 31.5,57.5 Z"/></g>
<g><path style="opacity:1" fill="#111111" d="M 66.5,58.5 C 68.1951,57.1736 69.5284,57.5069 70.5,59.5C 69.0063,62.734 67.173,63.0673 65,60.5C 63.3664,62.0621 61.8664,63.7287 60.5,65.5C 58.6208,66.3414 56.6208,66.6747 54.5,66.5C 54.6107,65.8826 54.944,65.3826 55.5,65C 54.5842,64.7216 53.9175,64.2216 53.5,63.5C 55.153,63.3404 56.4863,62.6737 57.5,61.5C 58.1174,61.6107 58.6174,61.944 59,62.5C 59.8466,60.8068 60.6799,59.1401 61.5,57.5C 62.1499,57.1961 62.8165,56.8627 63.5,56.5C 64.2652,57.6119 65.2652,58.2786 66.5,58.5 Z"/></g>
<g><path style="opacity:1" fill="#e1dcdb" d="M 5.5,59.5 C 6.16667,59.8333 6.83333,60.1667 7.5,60.5C 8.81748,60.179 10.1508,59.8457 11.5,59.5C 13.8076,59.7075 15.141,60.3742 15.5,61.5C 14.9033,61.7352 14.5699,62.2352 14.5,63C 15.0556,64.0111 15.7222,64.8444 16.5,65.5C 15.209,65.2627 14.209,65.596 13.5,66.5C 11.0326,66.7549 9.03259,67.7549 7.5,69.5C 5.42136,69.9707 3.42136,70.6373 1.5,71.5C 1.06178,71.5654 0.728446,71.3988 0.5,71C 1.88645,67.7247 3.88645,64.8914 6.5,62.5C 5.87277,61.5832 5.53944,60.5832 5.5,59.5 Z"/></g>
<g><path style="opacity:1" fill="#583528" d="M 25.5,54.5 C 26.1667,54.5 26.5,54.8333 26.5,55.5C 28.0214,58.7053 27.688,61.7053 25.5,64.5C 24.5832,63.8728 23.5832,63.5394 22.5,63.5C 24.6883,60.9351 25.6883,57.9351 25.5,54.5 Z"/></g>
<g><path style="opacity:1" fill="#91877e" d="M 15.5,61.5 C 16.209,62.404 17.209,62.7373 18.5,62.5C 18.5,62.8333 18.5,63.1667 18.5,63.5C 18.1667,64.5 17.5,65.1667 16.5,65.5C 15.7222,64.8444 15.0556,64.0111 14.5,63C 14.5699,62.2352 14.9033,61.7352 15.5,61.5 Z"/></g>
<g><path style="opacity:1" fill="#398d3c" d="M 79.5,60.5 C 79.5,62.1667 79.5,63.8333 79.5,65.5C 77.7481,68.672 75.7481,71.672 73.5,74.5C 73.9239,71.646 74.9239,68.9793 76.5,66.5C 75.1395,66.2124 73.8062,65.879 72.5,65.5C 72.5,65.1667 72.5,64.8333 72.5,64.5C 74.2424,62.231 76.5757,60.8976 79.5,60.5 Z"/></g>
<g><path style="opacity:1" fill="#382118" d="M 48.5,57.5 C 49.3414,59.3792 49.6747,61.3792 49.5,63.5C 50.8333,63.5 52.1667,63.5 53.5,63.5C 53.9175,64.2216 54.5842,64.7216 55.5,65C 54.944,65.3826 54.6107,65.8826 54.5,66.5C 53.8333,66.8333 53.1667,67.1667 52.5,67.5C 47.2121,65.8655 41.8787,64.1988 36.5,62.5C 38.3736,61.7148 40.3736,61.0482 42.5,60.5C 43.8333,59.8333 45.1667,59.1667 46.5,58.5C 47.1667,58.1667 47.8333,57.8333 48.5,57.5 Z"/></g>
<g><path style="opacity:1" fill="#a0664a" d="M 28.5,53.5 C 29.5,54.8333 30.5,56.1667 31.5,57.5C 29.3023,57.4088 28.9689,58.0755 30.5,59.5C 29.9033,59.7352 29.5699,60.2352 29.5,61C 31.0892,63.5116 32.4225,66.1783 33.5,69C 33.4301,69.7648 33.0967,70.2648 32.5,70.5C 31.1531,65.9201 28.6531,65.2535 25,68.5C 24.0546,68.0946 23.3879,67.428 23,66.5C 22.6012,66.7284 22.4346,67.0618 22.5,67.5C 22.1667,67.5 21.8333,67.5 21.5,67.5C 21.5,66.8333 21.5,66.1667 21.5,65.5C 21.8333,64.8333 22.1667,64.1667 22.5,63.5C 23.5832,63.5394 24.5832,63.8728 25.5,64.5C 27.688,61.7053 28.0214,58.7053 26.5,55.5C 27.1667,54.8333 27.8333,54.1667 28.5,53.5 Z"/></g>
<g><path style="opacity:1" fill="#255624" d="M 65.5,64.5 C 64.5707,65.3149 63.5707,66.1482 62.5,67C 58.5794,67.1065 54.9127,67.9399 51.5,69.5C 51.8333,68.8333 52.1667,68.1667 52.5,67.5C 53.1667,67.1667 53.8333,66.8333 54.5,66.5C 56.6208,66.6747 58.6208,66.3414 60.5,65.5C 62.1172,64.962 63.7839,64.6287 65.5,64.5 Z"/></g>
<g><path style="opacity:1" fill="#1f4521" d="M 18.5,63.5 C 19.5,64.1667 20.5,64.8333 21.5,65.5C 21.5,66.1667 21.5,66.8333 21.5,67.5C 19.5946,66.97 17.7613,67.6366 16,69.5C 15.7645,67.8807 14.9311,66.8807 13.5,66.5C 14.209,65.596 15.209,65.2627 16.5,65.5C 17.5,65.1667 18.1667,64.5 18.5,63.5 Z"/></g>
<g><path style="opacity:1" fill="#a66549" d="M 33.5,61.5 C 34.391,62.1098 35.391,62.4431 36.5,62.5C 38.9266,64.5576 41.5932,66.3909 44.5,68C 46.565,69.2953 48.565,69.7953 50.5,69.5C 49.5,69.8333 48.8333,70.5 48.5,71.5C 47.8333,71.5 47.1667,71.5 46.5,71.5C 45.1067,70.7402 43.6067,70.0735 42,69.5C 41.1667,69.6667 40.3333,69.8333 39.5,70C 38.9152,71.3024 38.2485,72.469 37.5,73.5C 37.6716,72.5084 37.3382,71.8417 36.5,71.5C 35.2013,68.3162 34.2013,64.9829 33.5,61.5 Z"/></g>
<g><path style="opacity:1" fill="#5d3221" d="M 36.5,62.5 C 41.8787,64.1988 47.2121,65.8655 52.5,67.5C 52.1667,68.1667 51.8333,68.8333 51.5,69.5C 51.1667,69.5 50.8333,69.5 50.5,69.5C 48.565,69.7953 46.565,69.2953 44.5,68C 41.5932,66.3909 38.9266,64.5576 36.5,62.5 Z"/></g>
<g><path style="opacity:1" fill="#40a346" d="M 71.5,65.5 C 71.8333,65.5 72.1667,65.5 72.5,65.5C 73.8062,65.879 75.1395,66.2124 76.5,66.5C 74.9239,68.9793 73.9239,71.646 73.5,74.5C 72.962,76.1172 72.6287,77.7839 72.5,79.5C 71.5,79.5 70.5,79.5 69.5,79.5C 70.0229,76.9723 71.0229,74.639 72.5,72.5C 71.6372,70.1282 70.4705,70.1282 69,72.5C 68.6174,71.944 68.1174,71.6107 67.5,71.5C 69.2516,69.7541 70.5849,67.7541 71.5,65.5 Z"/></g>
<g><path style="opacity:1" fill="#cd9271" d="M 30.5,59.5 C 31.5,60.1667 32.5,60.8333 33.5,61.5C 34.2013,64.9829 35.2013,68.3162 36.5,71.5C 34.7367,72.9538 33.4033,72.6204 32.5,70.5C 33.0967,70.2648 33.4301,69.7648 33.5,69C 32.4225,66.1783 31.0892,63.5116 29.5,61C 29.5699,60.2352 29.9033,59.7352 30.5,59.5 Z"/></g>
<g><path style="opacity:1" fill="#338036" d="M 65.5,64.5 C 67.8333,64.5 70.1667,64.5 72.5,64.5C 72.5,64.8333 72.5,65.1667 72.5,65.5C 72.1667,65.5 71.8333,65.5 71.5,65.5C 68.5322,65.6261 66.5322,67.1261 65.5,70C 60.6143,69.578 56.6143,71.078 53.5,74.5C 51.8361,73.7769 50.1694,74.1103 48.5,75.5C 46.8974,76.6772 45.564,76.5106 44.5,75C 46.3237,74.34 47.657,73.1733 48.5,71.5C 48.8333,70.5 49.5,69.8333 50.5,69.5C 50.8333,69.5 51.1667,69.5 51.5,69.5C 54.9127,67.9399 58.5794,67.1065 62.5,67C 63.5707,66.1482 64.5707,65.3149 65.5,64.5 Z"/></g>
<g><path style="opacity:1" fill="#49b44e" d="M 79.5,65.5 C 79.5,67.8333 79.5,70.1667 79.5,72.5C 78.6557,74.8428 77.6557,77.1761 76.5,79.5C 75.1667,79.5 73.8333,79.5 72.5,79.5C 72.6287,77.7839 72.962,76.1172 73.5,74.5C 75.7481,71.672 77.7481,68.672 79.5,65.5 Z"/></g>
<g><path style="opacity:1" fill="#d39575" d="M 46.5,71.5 C 46.5,72.1667 46.1667,72.5 45.5,72.5C 43.5,72.5 41.5,72.5 39.5,72.5C 39.6547,75.8531 38.9881,76.1864 37.5,73.5C 38.2485,72.469 38.9152,71.3024 39.5,70C 40.3333,69.8333 41.1667,69.6667 42,69.5C 43.6067,70.0735 45.1067,70.7402 46.5,71.5 Z"/></g>
<g><path style="opacity:1" fill="#d59874" d="M 32.5,70.5 C 31.3303,72.2785 29.6636,73.2785 27.5,73.5C 25.086,72.0892 23.4194,70.0892 22.5,67.5C 22.4346,67.0618 22.6012,66.7284 23,66.5C 23.3879,67.428 24.0546,68.0946 25,68.5C 28.6531,65.2535 31.1531,65.9201 32.5,70.5 Z"/></g>
<g><path style="opacity:1" fill="#389842" d="M 20.5,70.5 C 19.6562,73.3447 18.9896,76.3447 18.5,79.5C 16.1667,79.5 13.8333,79.5 11.5,79.5C 9.85639,77.5193 8.18973,75.5193 6.5,73.5C 6.97665,72.5224 7.64332,71.6891 8.5,71C 6.16927,71.1571 3.83594,71.6571 1.5,72.5C 1.5,72.1667 1.5,71.8333 1.5,71.5C 3.42136,70.6373 5.42136,69.9707 7.5,69.5C 9.5504,69.0388 11.5504,68.3721 13.5,67.5C 14.4287,68.6888 14.762,70.0222 14.5,71.5C 15.8221,71.33 16.9887,71.6634 18,72.5C 18.2492,71.376 18.7492,70.376 19.5,69.5C 20.1067,69.6236 20.44,69.9569 20.5,70.5 Z"/></g>
<g><path style="opacity:1" fill="#3ea448" d="M 11.5,79.5 C 7.5,79.5 3.5,79.5 -0.5,79.5C -0.5,77.5 -0.5,75.5 -0.5,73.5C 0.166667,73.1667 0.833333,72.8333 1.5,72.5C 3.83594,71.6571 6.16927,71.1571 8.5,71C 7.64332,71.6891 6.97665,72.5224 6.5,73.5C 8.18973,75.5193 9.85639,77.5193 11.5,79.5 Z"/></g>
<g><path style="opacity:1" fill="#35813c" d="M 13.5,66.5 C 14.9311,66.8807 15.7645,67.8807 16,69.5C 17.7613,67.6366 19.5946,66.97 21.5,67.5C 21.8333,67.5 22.1667,67.5 22.5,67.5C 23.4194,70.0892 25.086,72.0892 27.5,73.5C 28.8333,74.5 30.1667,75.5 31.5,76.5C 32.1667,77.1667 32.8333,77.8333 33.5,78.5C 30.2791,77.8891 27.2791,76.7224 24.5,75C 23.6719,73.0077 22.3386,71.5077 20.5,70.5C 20.44,69.9569 20.1067,69.6236 19.5,69.5C 18.7492,70.376 18.2492,71.376 18,72.5C 16.9887,71.6634 15.8221,71.33 14.5,71.5C 14.762,70.0222 14.4287,68.6888 13.5,67.5C 11.5504,68.3721 9.5504,69.0388 7.5,69.5C 9.03259,67.7549 11.0326,66.7549 13.5,66.5 Z"/></g>
<g><path style="opacity:1" fill="#3c9b43" d="M 71.5,65.5 C 70.5849,67.7541 69.2516,69.7541 67.5,71.5C 66.3951,72.6005 65.0618,73.2671 63.5,73.5C 60.7623,73.8511 58.0956,74.5178 55.5,75.5C 54.8165,75.1373 54.1499,74.8039 53.5,74.5C 56.6143,71.078 60.6143,69.578 65.5,70C 66.5322,67.1261 68.5322,65.6261 71.5,65.5 Z"/></g>
<g><path style="opacity:1" fill="#44ad4b" d="M 69.5,79.5 C 66.8333,79.5 64.1667,79.5 61.5,79.5C 62.1667,77.5 62.8333,75.5 63.5,73.5C 65.0618,73.2671 66.3951,72.6005 67.5,71.5C 68.1174,71.6107 68.6174,71.944 69,72.5C 70.4705,70.1282 71.6372,70.1282 72.5,72.5C 71.0229,74.639 70.0229,76.9723 69.5,79.5 Z"/></g>
<g><path style="opacity:1" fill="#e9bb9d" d="M 32.5,70.5 C 33.4033,72.6204 34.7367,72.9538 36.5,71.5C 37.3382,71.8417 37.6716,72.5084 37.5,73.5C 38.9881,76.1864 39.6547,75.8531 39.5,72.5C 41.5,72.5 43.5,72.5 45.5,72.5C 41.7077,76.1777 37.041,77.511 31.5,76.5C 30.1667,75.5 28.8333,74.5 27.5,73.5C 29.6636,73.2785 31.3303,72.2785 32.5,70.5 Z"/></g>
<g><path style="opacity:1" fill="#41a949" d="M 53.5,74.5 C 54.1499,74.8039 54.8165,75.1373 55.5,75.5C 58.0956,74.5178 60.7623,73.8511 63.5,73.5C 62.8333,75.5 62.1667,77.5 61.5,79.5C 56.1667,79.5 50.8333,79.5 45.5,79.5C 46.5,78.1667 47.5,76.8333 48.5,75.5C 50.1694,74.1103 51.8361,73.7769 53.5,74.5 Z"/></g>
<g><path style="opacity:1" fill="#3fa548" d="M 20.5,70.5 C 22.3386,71.5077 23.6719,73.0077 24.5,75C 27.2791,76.7224 30.2791,77.8891 33.5,78.5C 36.7131,78.19 39.7131,78.5233 42.5,79.5C 34.5,79.5 26.5,79.5 18.5,79.5C 18.9896,76.3447 19.6562,73.3447 20.5,70.5 Z"/></g>
<g><path style="opacity:1" fill="#28602d" d="M 46.5,71.5 C 47.1667,71.5 47.8333,71.5 48.5,71.5C 47.657,73.1733 46.3237,74.34 44.5,75C 45.564,76.5106 46.8974,76.6772 48.5,75.5C 47.5,76.8333 46.5,78.1667 45.5,79.5C 44.5,79.5 43.5,79.5 42.5,79.5C 39.7131,78.5233 36.7131,78.19 33.5,78.5C 32.8333,77.8333 32.1667,77.1667 31.5,76.5C 37.041,77.511 41.7077,76.1777 45.5,72.5C 46.1667,72.5 46.5,72.1667 46.5,71.5 Z"/></g>
<g><path style="opacity:1" fill="#33742e" d="M 79.5,72.5 C 79.5,74.8333 79.5,77.1667 79.5,79.5C 78.5,79.5 77.5,79.5 76.5,79.5C 77.6557,77.1761 78.6557,74.8428 79.5,72.5 Z"/></g>
</svg>
